<svg width="24" height="24" viewBox="0 0 24 24" fill="none" xmlns="http://www.w3.org/2000/svg">
<rect width="24" height="24" rx="8" fill="white"/>
<path d="M9.21715 8.27273V17H8.16033V8.27273H9.21715ZM11.3361 17V8.27273H14.285C14.9696 8.27273 15.5293 8.39631 15.964 8.64347C16.4015 8.88778 16.7253 9.21875 16.9355 9.63636C17.1458 10.054 17.2509 10.5199 17.2509 11.0341C17.2509 11.5483 17.1458 12.0156 16.9355 12.4361C16.7282 12.8565 16.4071 13.1918 15.9725 13.4418C15.5378 13.6889 14.981 13.8125 14.302 13.8125H12.1884V12.875H14.2679C14.7367 12.875 15.1131 12.794 15.3972 12.6321C15.6813 12.4702 15.8873 12.2514 16.0151 11.9759C16.1458 11.6974 16.2111 11.3835 16.2111 11.0341C16.2111 10.6847 16.1458 10.3722 16.0151 10.0966C15.8873 9.82102 15.6799 9.60511 15.3929 9.44886C15.106 9.28977 14.7253 9.21023 14.2509 9.21023H12.3929V17H11.3361Z" fill="#0842A0"/>
</svg>
