<svg width="460" height="253" viewBox="0 0 460 253" fill="none" xmlns="http://www.w3.org/2000/svg">
<rect width="460" height="253" fill="#FFCA8B"/>
<circle cx="113" cy="121" r="66.5" fill="white" stroke="#C9C8C8" stroke-width="7"/>
<path d="M146.074 114.238V122.022H80.3888V114.238H146.074Z" fill="#9AD14B"/>
<path d="M88.0679 114.238V122.022H80.3888V114.238H88.0679Z" fill="#8BB73D"/>
<path d="M138.107 122.022V122.521L129.199 131.429L119.783 122.022H138.107Z" fill="#F4DE3B"/>
<path d="M146.074 122.022C148.109 122.022 149.952 122.848 151.296 124.182C152.63 125.516 153.456 127.359 153.456 129.394C153.456 133.474 150.154 136.776 146.074 136.776H79.9857C77.9507 136.776 76.1077 135.95 74.7639 134.616C73.42 133.282 72.6041 131.439 72.6041 129.394C72.6041 125.324 75.9062 122.013 79.9857 122.013H119.792L129.199 131.42L138.117 122.512V122.022H146.074Z" fill="#B27214"/>
<path d="M146.669 136.776C148.522 136.776 150.019 138.273 150.019 140.126V144.205C150.019 149.062 146.084 152.998 141.227 152.998H84.8235C79.9664 152.998 76.0309 149.062 76.0309 144.205V140.126C76.0309 138.273 77.5283 136.776 79.3809 136.776H146.669ZM150.019 110.888C150.019 112.74 148.522 114.238 146.669 114.238H79.3809C78.4594 114.238 77.6147 113.863 77.01 113.258C76.4052 112.654 76.0309 111.819 76.0309 110.888C76.0309 98.7929 85.8314 88.9828 97.9356 88.9828H128.124C134.172 88.9828 139.643 91.4305 143.607 95.3949C147.572 99.3688 150.019 104.84 150.019 110.888V110.888Z" fill="#F7B239"/>
<path d="M96.3326 144.215V140.135C96.3326 138.283 97.83 136.785 99.6826 136.785H79.3809C77.5283 136.785 76.0309 138.283 76.0309 140.135V144.215C76.0309 149.072 79.9664 153.008 84.8235 153.008H105.125C100.268 153.008 96.3326 149.062 96.3326 144.215V144.215ZM93.069 110.897C93.069 98.8025 102.869 88.9924 114.974 88.9924H97.9356C85.841 88.9924 76.0309 98.8025 76.0309 110.897C76.0309 111.819 76.4052 112.663 77.01 113.268C77.6147 113.873 78.4498 114.247 79.3809 114.247H96.419C95.4975 114.247 94.6528 113.873 94.0481 113.268C93.4433 112.654 93.069 111.819 93.069 110.897V110.897Z" fill="#E09B2D"/>
<path d="M88.3848 129.394C88.3848 126.697 89.8342 124.326 92.0036 123.04L90.9669 122.022H79.9857C75.9062 122.022 72.6041 125.324 72.6041 129.404C72.6041 131.439 73.4296 133.282 74.7639 134.626C76.0981 135.97 77.9411 136.785 79.9857 136.785H95.7663C93.7314 136.785 91.8884 135.96 90.5445 134.626C89.2103 133.282 88.3848 131.439 88.3848 129.394V129.394Z" fill="#995E10"/>
<path d="M145.249 146.845C144.327 146.845 143.578 146.096 143.578 145.175V141.767C143.578 140.846 144.327 140.097 145.249 140.097C146.17 140.097 146.919 140.846 146.919 141.767V145.175C146.909 146.106 146.17 146.845 145.249 146.845ZM145.047 109.793C144.241 109.793 143.53 109.208 143.406 108.382C142.916 105.205 141.448 102.316 139.153 100.022C138.481 99.3496 137.742 98.7353 136.965 98.2074C136.206 97.689 136.005 96.6523 136.533 95.894C137.061 95.1357 138.088 94.9341 138.846 95.4621C139.796 96.1148 140.689 96.8539 141.515 97.6794C144.318 100.482 146.113 104.005 146.708 107.893C146.852 108.805 146.228 109.649 145.316 109.793C145.22 109.784 145.133 109.793 145.047 109.793V109.793ZM148.675 130.882C147.754 130.882 147.005 130.133 147.005 129.212C147.005 129.01 146.909 128.866 146.833 128.79C146.756 128.713 146.612 128.617 146.41 128.617C145.489 128.617 144.74 127.868 144.74 126.947C144.74 126.025 145.489 125.276 146.41 125.276C147.831 125.276 148.762 125.996 149.194 126.428C149.626 126.86 150.346 127.791 150.346 129.212C150.336 130.133 149.597 130.882 148.675 130.882Z" fill="white"/>
<path d="M132.405 94.8765C132.405 95.0959 132.449 95.3131 132.532 95.5158C132.616 95.7185 132.739 95.9027 132.894 96.0578C133.05 96.2129 133.234 96.336 133.436 96.42C133.639 96.5039 133.856 96.5471 134.076 96.5471C134.295 96.5471 134.512 96.5039 134.715 96.42C134.918 96.336 135.102 96.2129 135.257 96.0578C135.412 95.9027 135.535 95.7185 135.619 95.5158C135.703 95.3131 135.746 95.0959 135.746 94.8765C135.746 94.6572 135.703 94.4399 135.619 94.2372C135.535 94.0346 135.412 93.8504 135.257 93.6953C135.102 93.5401 134.918 93.4171 134.715 93.3331C134.512 93.2491 134.295 93.2059 134.076 93.2059C133.856 93.2059 133.639 93.2491 133.436 93.3331C133.234 93.4171 133.05 93.5401 132.894 93.6953C132.739 93.8504 132.616 94.0346 132.532 94.2372C132.449 94.4399 132.405 94.6572 132.405 94.8765V94.8765Z" fill="white"/>
<path d="M155.116 129.404C155.116 124.912 151.834 121.178 147.533 120.477V115.831C149.885 115.418 151.68 113.364 151.68 110.897C151.68 97.9002 141.112 87.3318 128.115 87.3318H97.9356C84.9387 87.3222 74.3703 97.9002 74.3703 110.888C74.3703 113.354 76.1653 115.418 78.517 115.821V120.467C74.2263 121.168 70.9338 124.902 70.9338 129.394C70.9338 132.687 72.7 135.576 75.3397 137.16C74.7254 137.995 74.3607 139.012 74.3607 140.126V144.205C74.3607 149.974 79.0545 154.668 84.8235 154.668H141.227C146.996 154.668 151.69 149.974 151.69 144.205V140.126C151.69 139.012 151.325 137.995 150.711 137.16C153.35 135.576 155.116 132.696 155.116 129.404V129.404ZM81.8478 120.352V115.908H144.202V120.352H81.8478ZM134.584 123.683L129.199 129.068L123.814 123.683H134.584ZM77.7011 110.888C77.7011 99.7336 86.7817 90.653 97.9356 90.653H128.124C139.278 90.653 148.359 99.7336 148.359 110.888C148.359 111.819 147.6 112.567 146.679 112.567H79.3809C78.4498 112.577 77.7011 111.819 77.7011 110.888V110.888ZM146.669 138.446C147.6 138.446 148.349 139.204 148.349 140.126V144.205C148.349 148.131 145.153 151.337 141.217 151.337H84.8235C80.8975 151.337 77.6915 148.141 77.6915 144.205V140.126C77.6915 139.195 78.4498 138.446 79.3713 138.446H146.669ZM146.074 135.115H79.9856C76.8372 135.115 74.2743 132.552 74.2743 129.404C74.2743 126.255 76.8372 123.692 79.9856 123.692H119.101L128.019 132.62C128.345 132.946 128.767 133.109 129.199 133.109C129.631 133.109 130.054 132.946 130.38 132.62L139.288 123.712L139.278 123.702H146.074C149.223 123.702 151.786 126.265 151.786 129.413C151.786 132.552 149.223 135.115 146.074 135.115V135.115Z" fill="#333333"/>
<path d="M95.0176 95.798C95.0175 96.0174 95.0607 96.2346 95.1446 96.4373C95.2285 96.64 95.3515 96.8242 95.5066 96.9793C95.6617 97.1344 95.8459 97.2575 96.0485 97.3415C96.2512 97.4254 96.4684 97.4686 96.6878 97.4686C96.9072 97.4686 97.1244 97.4254 97.327 97.3415C97.5297 97.2575 97.7138 97.1344 97.8689 96.9793C98.024 96.8242 98.1471 96.64 98.231 96.4373C98.3149 96.2346 98.3581 96.0174 98.358 95.798C98.3581 95.5787 98.3149 95.3614 98.231 95.1587C98.1471 94.9561 98.024 94.7719 97.8689 94.6167C97.7138 94.4616 97.5297 94.3386 97.327 94.2546C97.1244 94.1706 96.9072 94.1274 96.6878 94.1274C96.4684 94.1274 96.2512 94.1706 96.0485 94.2546C95.8459 94.3386 95.6617 94.4616 95.5066 94.6167C95.3515 94.7719 95.2285 94.9561 95.1446 95.1587C95.0607 95.3614 95.0175 95.5787 95.0176 95.798V95.798Z" fill="#333333"/>
<path d="M127.692 95.798C127.692 96.0174 127.735 96.2346 127.819 96.4373C127.903 96.64 128.026 96.8242 128.181 96.9793C128.336 97.1344 128.521 97.2575 128.723 97.3415C128.926 97.4254 129.143 97.4686 129.362 97.4686C129.582 97.4686 129.799 97.4254 130.002 97.3415C130.204 97.2575 130.389 97.1344 130.544 96.9793C130.699 96.8242 130.822 96.64 130.906 96.4373C130.99 96.2346 131.033 96.0174 131.033 95.798C131.033 95.5787 130.99 95.3614 130.906 95.1587C130.822 94.9561 130.699 94.7719 130.544 94.6167C130.389 94.4616 130.204 94.3386 130.002 94.2546C129.799 94.1706 129.582 94.1274 129.362 94.1274C129.143 94.1274 128.926 94.1706 128.723 94.2546C128.521 94.3386 128.336 94.4616 128.181 94.6167C128.026 94.7719 127.903 94.9561 127.819 95.1587C127.735 95.3614 127.692 95.5787 127.692 95.798Z" fill="#333333"/>
<path d="M105.912 95.798C105.912 96.241 106.088 96.6658 106.402 96.979C106.715 97.2923 107.14 97.4682 107.583 97.4682C108.026 97.4682 108.45 97.2923 108.764 96.979C109.077 96.6658 109.253 96.241 109.253 95.798C109.253 95.3551 109.077 94.9302 108.764 94.617C108.45 94.3038 108.026 94.1278 107.583 94.1278C107.14 94.1278 106.715 94.3038 106.402 94.617C106.088 94.9302 105.912 95.3551 105.912 95.798V95.798Z" fill="#333333"/>
<path d="M116.807 95.798C116.807 96.0174 116.85 96.2346 116.934 96.4373C117.018 96.64 117.141 96.8242 117.296 96.9793C117.451 97.1344 117.635 97.2575 117.838 97.3415C118.041 97.4254 118.258 97.4686 118.477 97.4686C118.697 97.4686 118.914 97.4254 119.117 97.3415C119.319 97.2575 119.503 97.1344 119.659 96.9793C119.814 96.8242 119.937 96.64 120.021 96.4373C120.104 96.2346 120.148 96.0174 120.148 95.798C120.148 95.5787 120.104 95.3614 120.021 95.1587C119.937 94.9561 119.814 94.7719 119.659 94.6167C119.503 94.4616 119.319 94.3386 119.117 94.2546C118.914 94.1706 118.697 94.1274 118.477 94.1274C118.258 94.1274 118.041 94.1706 117.838 94.2546C117.635 94.3386 117.451 94.4616 117.296 94.6167C117.141 94.7719 117.018 94.9561 116.934 95.1587C116.85 95.3614 116.807 95.5787 116.807 95.798V95.798Z" fill="#333333"/>
<circle cx="349" cy="121" r="66.5" fill="white" stroke="#C9C8C8" stroke-width="7"/>
<path d="M332.35 100.372C332.35 100.47 332.351 100.568 332.354 100.659C332.357 100.75 332.361 100.833 332.366 100.902C332.372 100.972 332.378 101.027 332.385 101.065C332.392 101.102 332.399 101.122 332.406 101.122C332.414 101.122 332.421 101.102 332.428 101.065C332.435 101.027 332.441 100.972 332.446 100.902C332.451 100.833 332.455 100.75 332.458 100.659C332.461 100.568 332.462 100.47 332.462 100.372C332.462 100.273 332.461 100.176 332.458 100.085C332.455 99.9939 332.451 99.9112 332.446 99.8415C332.441 99.7719 332.435 99.7167 332.428 99.679C332.421 99.6413 332.414 99.6219 332.406 99.6219C332.399 99.6219 332.392 99.6413 332.385 99.679C332.378 99.7167 332.372 99.7719 332.366 99.8415C332.361 99.9112 332.357 99.9939 332.354 100.085C332.351 100.176 332.35 100.273 332.35 100.372Z" fill="#AEE249"/>
<path d="M313.572 141.941C310.506 138.828 310.45 133.775 313.403 130.597C313.506 130.484 313.628 130.372 313.741 130.269C315.231 128.909 326.819 119.628 336.944 109.344C347.069 99.0594 356.219 87.3125 357.559 85.8031C357.663 85.6812 357.766 85.5687 357.888 85.4656C360.981 82.5031 365.866 82.5219 368.941 85.5125" fill="#C76516"/>
<path d="M370.759 99.2562C373.703 96.2656 381.719 98.6188 381.719 98.6188C382.694 95.0469 381.803 91.0531 379.047 88.25C374.978 84.125 368.322 84.125 364.253 88.25C364.253 88.25 348.494 106.278 341.209 113.666C333.934 121.053 316.159 137.056 316.159 137.056C314.828 138.406 313.928 140.047 313.469 141.781C312.531 145.334 313.422 149.3 316.159 152.075C318.822 154.775 322.581 155.713 326.013 154.878C323.509 151.691 323.716 147.003 326.613 144.059L353.003 124.906L370.759 99.2562Z" fill="#843514"/>
<path d="M370.347 138.387C369.522 139.241 368.669 140.122 367.778 141.031C355.928 153.05 352.028 155.806 352.028 155.806C345.1 162.828 333.775 162.828 326.847 155.806L326.613 155.562C323.491 152.394 323.491 147.219 326.613 144.05L341.463 131.328C347.519 126.144 353.125 120.453 358.216 114.331L370.75 99.2562C373.872 96.0875 378.972 96.0875 382.094 99.2562L382.328 99.5C389.256 106.522 389.256 118.025 382.328 125.047C382.328 125.047 381.878 125.609 381.006 126.622L370.347 138.387Z" fill="#C76516"/>
<path d="M313.309 138.997C310.337 135.987 310.291 131.094 313.15 128.009C313.253 127.897 313.366 127.794 313.478 127.691C314.922 126.369 326.144 117.378 335.959 107.413C345.775 97.4469 354.625 86.0656 355.928 84.6031C356.031 84.4906 356.134 84.3781 356.237 84.275C359.237 81.4063 363.972 81.425 366.944 84.3219" fill="#D8903A"/>
<path d="M368.716 97.3812C371.575 94.4844 379.328 96.7625 379.328 96.7625C380.275 93.3031 379.413 89.4312 376.741 86.7219C372.794 82.7187 366.344 82.7187 362.406 86.7219C362.406 86.7219 347.134 104.187 340.084 111.341C333.025 118.494 315.813 134 315.813 134C314.519 135.312 313.647 136.897 313.206 138.575C312.297 142.016 313.159 145.859 315.813 148.541C318.391 151.156 322.038 152.066 325.356 151.259C322.938 148.175 323.125 143.628 325.938 140.778L351.503 122.216L368.716 97.3812V97.3812Z" fill="#9A451C"/>
<path d="M325.412 138.228C324.306 138.228 323.359 137.731 323.209 137.647L324.587 135.144L324.578 135.134C324.925 135.312 325.384 135.406 325.525 135.359C325.553 135.322 325.816 134.947 325.712 133.634C325.544 131.506 326.041 130.044 327.194 129.284C328.722 128.281 330.587 129.106 331.009 129.312C331.253 129.406 331.675 129.472 331.834 129.369C331.975 129.275 332.209 128.825 332.209 127.747C332.2 126.022 332.734 124.756 333.794 123.969C334.684 123.312 335.734 123.144 336.653 123.003C338.303 122.741 338.603 122.609 338.687 121.484C338.837 119.553 339.541 118.147 340.769 117.303C341.809 116.591 343 116.422 343.956 116.291C344.387 116.234 345.109 116.131 345.278 115.991C345.287 115.962 345.334 115.813 345.306 115.456C344.969 111.781 347.65 111.228 349.094 110.928C350.584 110.619 350.828 110.534 350.781 109.353C350.631 105.631 353.022 104.891 354.456 104.45C355.075 104.262 355.6 104.094 355.9 103.794C356.219 103.466 356.359 102.828 356.322 101.891C356.247 100.062 356.744 98.6187 357.794 97.6062C359.331 96.1344 361.403 96.2469 361.628 96.2656C361.656 96.2656 361.684 96.275 361.703 96.275C362.059 96.3219 363.203 96.3219 363.728 95.7969C364.037 95.4875 364.141 94.9437 364.037 94.175C363.934 93.3969 364.487 92.675 365.275 92.5812C366.053 92.4781 366.775 93.0312 366.869 93.8187C367.019 94.9906 366.944 96.6312 365.734 97.8312C364.216 99.3406 361.891 99.1719 361.384 99.1156C361.234 99.1156 360.325 99.1156 359.753 99.6781C359.322 100.1 359.125 100.803 359.172 101.769C359.341 105.922 356.809 106.7 355.291 107.169C354.737 107.337 354.222 107.497 353.959 107.75C353.706 107.994 353.594 108.491 353.622 109.231C353.772 112.878 351.091 113.431 349.656 113.722C348.222 114.013 348.034 114.05 348.137 115.194C348.231 116.187 348.072 117.556 346.844 118.372C346.094 118.869 345.203 118.991 344.341 119.113C342.634 119.347 341.697 119.478 341.519 121.7C341.247 125.15 338.641 125.563 337.084 125.816C335.472 126.069 335.031 126.144 335.041 127.728C335.05 129.678 334.487 131.037 333.362 131.759C331.806 132.762 329.997 131.994 329.8 131.9C329.772 131.881 329.753 131.881 329.725 131.863C329.369 131.684 328.862 131.591 328.741 131.656C328.675 131.703 328.441 132.153 328.544 133.391C328.712 135.528 328.216 136.991 327.062 137.741C326.537 138.106 325.956 138.228 325.412 138.228V138.228Z" fill="#C49E00"/>
<path d="M324.756 137.759C323.65 137.759 322.703 137.263 322.553 137.178L323.931 134.675L323.922 134.666C324.269 134.844 324.728 134.937 324.869 134.891C324.897 134.853 325.159 134.478 325.056 133.166C324.887 131.037 325.384 129.575 326.537 128.816C328.066 127.813 329.931 128.637 330.353 128.844C330.597 128.937 331.019 129.003 331.178 128.9C331.319 128.806 331.553 128.356 331.553 127.278C331.544 125.553 332.078 124.287 333.137 123.5C334.028 122.844 335.078 122.675 335.997 122.534C337.647 122.272 337.947 122.141 338.031 121.016C338.181 119.084 338.884 117.678 340.112 116.834C341.153 116.122 342.344 115.953 343.3 115.822C343.731 115.766 344.453 115.662 344.622 115.522C344.631 115.494 344.678 115.344 344.65 114.988C344.312 111.313 346.994 110.759 348.437 110.459C349.928 110.15 350.172 110.066 350.125 108.884C349.975 105.162 352.366 104.422 353.8 103.981C354.419 103.794 354.944 103.625 355.244 103.325C355.562 102.997 355.703 102.359 355.666 101.422C355.591 99.5937 356.087 98.15 357.137 97.1375C358.675 95.6656 360.747 95.7781 360.972 95.7969C361 95.7969 361.028 95.8062 361.047 95.8062C361.403 95.8531 362.547 95.8531 363.072 95.3281C363.381 95.0187 363.484 94.475 363.381 93.7062C363.278 92.9281 363.831 92.2062 364.619 92.1125C365.397 92.0094 366.119 92.5625 366.212 93.35C366.362 94.5219 366.287 96.1625 365.078 97.3625C363.559 98.8719 361.234 98.7031 360.728 98.6469C360.578 98.6469 359.669 98.6469 359.097 99.2094C358.666 99.6312 358.469 100.334 358.516 101.3C358.684 105.453 356.153 106.231 354.634 106.7C354.081 106.869 353.566 107.028 353.303 107.281C353.05 107.525 352.937 108.022 352.966 108.762C353.116 112.409 350.434 112.963 349 113.253C347.566 113.544 347.378 113.581 347.481 114.725C347.575 115.719 347.416 117.087 346.187 117.903C345.437 118.4 344.547 118.522 343.684 118.644C341.978 118.878 341.041 119.009 340.862 121.231C340.591 124.681 337.984 125.094 336.428 125.347C334.816 125.6 334.375 125.675 334.384 127.259C334.394 129.209 333.831 130.569 332.706 131.291C331.15 132.294 329.341 131.525 329.144 131.431C329.116 131.412 329.097 131.413 329.069 131.394C328.712 131.216 328.206 131.122 328.084 131.187C328.019 131.234 327.784 131.684 327.887 132.922C328.056 135.059 327.559 136.522 326.406 137.272C325.881 137.638 325.3 137.759 324.756 137.759V137.759Z" fill="#FFD731"/>
<path d="M368.313 135.547C367.516 136.372 366.681 137.225 365.819 138.106C354.344 149.759 350.566 152.431 350.566 152.431C343.853 159.237 332.884 159.237 326.172 152.431L325.947 152.197C322.928 149.131 322.928 144.116 325.947 141.041L340.338 128.712C346.197 123.697 351.625 118.184 356.566 112.25L368.716 97.6438C371.734 94.5781 376.684 94.5781 379.703 97.6438L379.928 97.8781C386.641 104.684 386.641 115.822 379.928 122.628C379.928 122.628 379.488 123.172 378.653 124.156L368.313 135.547Z" fill="#D8903A"/>
</svg>
