<svg width="656" height="308" viewBox="0 0 656 308" fill="none" xmlns="http://www.w3.org/2000/svg">
<rect width="656" height="308" fill="white"/>
<rect x="209" y="182.414" width="105.919" height="16.4411" rx="8" transform="rotate(-15 209 182.414)" fill="#D04B00"/>
<path d="M52 206.5V191.5L220 198V203V209L217 214L211 220.5L204 226L193.5 232.5L179 236L162 238.5H135H110L85.5 232.5L69 226L57.5 220.5L52 214V206.5Z" fill="#F71212" stroke="black"/>
<path d="M218 192C218 193.84 216.9 196.368 213.125 199.379C209.399 202.349 203.7 205.244 196.214 207.768C181.291 212.8 160.356 216 137 216C113.644 216 92.7091 212.8 77.7865 207.768C70.2997 205.244 64.6008 202.349 60.8752 199.379C57.0996 196.368 56 193.84 56 192C56 190.16 57.0996 187.632 60.8752 184.621C64.6008 181.651 70.2997 178.756 77.7865 176.232C92.7091 171.2 113.644 168 137 168C160.356 168 181.291 171.2 196.214 176.232C203.7 178.756 209.399 181.651 213.125 184.621C216.9 187.632 218 190.16 218 192Z" fill="#9FCDF7" stroke="#D9D9D9" stroke-width="10"/>
<ellipse cx="137" cy="202" rx="61" ry="10" fill="#5E5E5E"/>
<path d="M218 192C218 193.84 216.9 196.368 213.125 199.379C209.399 202.349 203.7 205.244 196.214 207.768C181.291 212.8 160.356 216 137 216C113.644 216 92.7091 212.8 77.7865 207.768C70.2997 205.244 64.6008 202.349 60.8752 199.379C57.0996 196.368 56 193.84 56 192C56 190.16 57.0996 187.632 60.8752 184.621C64.6008 181.651 70.2997 178.756 77.7865 176.232C92.7091 171.2 113.644 168 137 168C160.356 168 181.291 171.2 196.214 176.232C203.7 178.756 209.399 181.651 213.125 184.621C216.9 187.632 218 190.16 218 192Z" stroke="#D9D9D9" stroke-width="10"/>
<rect x="510" y="182.414" width="105.919" height="16.4411" rx="8" transform="rotate(-15 510 182.414)" fill="#D04B00"/>
<path d="M353 206.5V191.5L521 198V203V209L518 214L512 220.5L505 226L494.5 232.5L480 236L463 238.5H436H411L386.5 232.5L370 226L358.5 220.5L353 214V206.5Z" fill="#F71212" stroke="black"/>
<path d="M519 192C519 193.84 517.9 196.368 514.125 199.379C510.399 202.349 504.7 205.244 497.214 207.768C482.291 212.8 461.356 216 438 216C414.644 216 393.709 212.8 378.786 207.768C371.3 205.244 365.601 202.349 361.875 199.379C358.1 196.368 357 193.84 357 192C357 190.16 358.1 187.632 361.875 184.621C365.601 181.651 371.3 178.756 378.786 176.232C393.709 171.2 414.644 168 438 168C461.356 168 482.291 171.2 497.214 176.232C504.7 178.756 510.399 181.651 514.125 184.621C517.9 187.632 519 190.16 519 192Z" fill="#9FCDF7" stroke="#D9D9D9" stroke-width="10"/>
<ellipse cx="438" cy="202" rx="61" ry="10" fill="#5E5E5E"/>
<path d="M519 192C519 193.84 517.9 196.368 514.125 199.379C510.399 202.349 504.7 205.244 497.214 207.768C482.291 212.8 461.356 216 438 216C414.644 216 393.709 212.8 378.786 207.768C371.3 205.244 365.601 202.349 361.875 199.379C358.1 196.368 357 193.84 357 192C357 190.16 358.1 187.632 361.875 184.621C365.601 181.651 371.3 178.756 378.786 176.232C393.709 171.2 414.644 168 438 168C461.356 168 482.291 171.2 497.214 176.232C504.7 178.756 510.399 181.651 514.125 184.621C517.9 187.632 519 190.16 519 192Z" stroke="#D9D9D9" stroke-width="10"/>
<path d="M220.5 192C220.5 195.793 218.275 199.479 214.083 202.901C209.895 206.319 203.804 209.42 196.234 212.033C181.098 217.259 160.156 220.5 137 220.5C113.844 220.5 92.902 217.259 77.7662 212.033C70.1959 209.42 64.1054 206.319 59.9173 202.901C55.7254 199.479 53.5 195.793 53.5 192C53.5 188.207 55.7254 184.521 59.9173 181.099C64.1054 177.681 70.1959 174.58 77.7662 171.967C92.902 166.741 113.844 163.5 137 163.5C160.156 163.5 181.098 166.741 196.234 171.967C203.804 174.58 209.895 177.681 214.083 181.099C218.275 184.521 220.5 188.207 220.5 192Z" fill="#A0DAFB" fill-opacity="0.4" stroke="black"/>
<ellipse cx="139.182" cy="192" rx="8.72727" ry="8.52941" fill="#0E0E0E"/>
<path d="M519.5 79C519.5 82.7927 517.275 86.4792 513.083 89.9008C508.895 93.3192 502.804 96.4199 495.234 99.0335C480.098 104.259 459.156 107.5 436 107.5C412.844 107.5 391.902 104.259 376.766 99.0335C369.196 96.4199 363.105 93.3192 358.917 89.9008C354.725 86.4792 352.5 82.7927 352.5 79C352.5 75.2073 354.725 71.5208 358.917 68.0992C363.105 64.6808 369.196 61.5801 376.766 58.9665C391.902 53.7411 412.844 50.5 436 50.5C459.156 50.5 480.098 53.7411 495.234 58.9665C502.804 61.5801 508.895 64.6808 513.083 68.0992C517.275 71.5208 519.5 75.2073 519.5 79Z" fill="#A0DAFB" fill-opacity="0.4" stroke="black"/>
<ellipse cx="438.182" cy="79" rx="8.72727" ry="8.52941" fill="#0E0E0E"/>
<g clip-path="url(#clip0_1_2)">
<path fill-rule="evenodd" clip-rule="evenodd" d="M444.221 190.905C447.911 191.152 454.904 190.525 458.011 191.137C470.324 193.565 470.753 199.555 460.52 200.767C458.326 201.027 451.778 201.037 448.203 201.224C471.445 211.054 425.001 211.244 413.828 208.66C401.354 205.775 411.588 198.592 426.757 199.096C414.808 191.301 438.541 190.526 444.221 190.905H444.221Z" fill="white"/>
<path d="M458.058 190.898L457.964 191.376L457.67 191.323L457.353 191.277L457.015 191.238L456.657 191.204L456.281 191.175L455.888 191.152L455.481 191.134L455.058 191.12L454.623 191.11L454.177 191.104L453.721 191.102L453.255 191.102L452.784 191.105L452.306 191.111L451.824 191.118L451.338 191.127L450.851 191.136L450.363 191.147L449.876 191.158L449.391 191.168L448.91 191.178L448.432 191.188L447.961 191.196L447.498 191.202L447.042 191.207L446.597 191.209L446.164 191.208L445.742 191.204L445.334 191.196L444.941 191.185L444.565 191.169L444.205 191.148L444.237 190.663L444.588 190.683L444.958 190.699L445.346 190.711L445.748 190.718L446.166 190.722L446.597 190.723L447.04 190.721L447.492 190.717L447.955 190.71L448.425 190.702L448.9 190.693L449.382 190.683L449.866 190.672L450.354 190.662L450.842 190.651L451.331 190.641L451.817 190.633L452.301 190.626L452.78 190.62L453.255 190.617L453.721 190.617L454.181 190.619L454.631 190.625L455.071 190.635L455.498 190.648L455.913 190.667L456.313 190.69L456.698 190.719L457.066 190.754L457.416 190.796L457.747 190.843L458.058 190.898V190.898ZM457.964 191.376L458.058 190.898L458.07 190.901L458.082 190.904L458.094 190.908L458.105 190.913L458.116 190.917L458.127 190.923L458.137 190.929L458.147 190.935L458.157 190.942L458.166 190.949L458.175 190.957L458.184 190.965L458.192 190.974L458.2 190.982L458.207 190.992L458.214 191.001L458.22 191.011L458.226 191.021L458.231 191.032L458.236 191.042L458.24 191.053L458.244 191.064L458.248 191.076L458.25 191.087L458.252 191.099L458.254 191.111L458.255 191.123L458.255 191.135L458.255 191.147L458.254 191.159L458.253 191.171L458.251 191.184L458.248 191.196L458.245 191.208L458.241 191.22L458.237 191.231L458.232 191.242L458.226 191.253L458.22 191.263L458.214 191.273L458.207 191.283L458.2 191.292L458.192 191.301L458.184 191.309L458.175 191.317L458.166 191.325L458.157 191.332L458.147 191.339L458.138 191.345L458.127 191.351L458.117 191.356L458.106 191.361L458.095 191.366L458.084 191.369L458.073 191.373L458.061 191.375L458.049 191.378L458.037 191.379L458.025 191.38L458.013 191.381L458.001 191.38L457.989 191.38L457.976 191.378L457.964 191.376V191.376ZM460.549 201.009L460.492 200.525L461.411 200.4L462.266 200.247L463.058 200.071L463.785 199.872L464.448 199.653L465.045 199.414L465.578 199.158L466.045 198.888L466.446 198.605L466.781 198.312L467.051 198.013L467.257 197.708L467.401 197.4L467.485 197.089L467.512 196.774L467.48 196.453L467.389 196.123L467.235 195.786L467.017 195.442L466.733 195.094L466.381 194.745L465.961 194.394L465.472 194.048L464.915 193.706L464.289 193.371L463.593 193.046L462.829 192.731L461.995 192.428L461.092 192.14L460.118 191.867L459.076 191.612L457.964 191.376L458.058 190.898L459.185 191.138L460.243 191.397L461.231 191.674L462.152 191.968L463.005 192.278L463.79 192.601L464.507 192.937L465.158 193.285L465.742 193.643L466.259 194.01L466.71 194.385L467.095 194.769L467.413 195.159L467.665 195.556L467.848 195.958L467.96 196.363L468 196.77L467.967 197.173L467.86 197.567L467.682 197.948L467.436 198.312L467.124 198.659L466.748 198.987L466.309 199.297L465.806 199.588L465.242 199.859L464.615 200.109L463.926 200.338L463.175 200.543L462.362 200.725L461.486 200.88L460.549 201.009V201.009ZM460.492 200.525L460.549 201.009L460.537 201.01L460.524 201.01L460.512 201.01L460.5 201.01L460.488 201.008L460.476 201.006L460.464 201.004L460.452 201.001L460.441 200.997L460.43 200.993L460.419 200.989L460.408 200.983L460.398 200.978L460.388 200.972L460.378 200.965L460.369 200.958L460.36 200.951L460.351 200.943L460.343 200.935L460.335 200.926L460.328 200.917L460.32 200.907L460.314 200.898L460.308 200.887L460.302 200.877L460.297 200.866L460.292 200.855L460.288 200.844L460.285 200.832L460.282 200.82L460.279 200.808L460.277 200.796L460.276 200.783L460.276 200.771L460.276 200.758L460.277 200.746L460.278 200.734L460.28 200.722L460.282 200.711L460.285 200.699L460.289 200.688L460.293 200.677L460.298 200.666L460.303 200.656L460.309 200.645L460.315 200.635L460.321 200.626L460.328 200.616L460.336 200.607L460.344 200.599L460.352 200.59L460.361 200.583L460.37 200.575L460.379 200.568L460.389 200.562L460.399 200.555L460.41 200.55L460.421 200.545L460.432 200.54L460.443 200.536L460.455 200.533L460.467 200.53L460.479 200.527L460.492 200.525V200.525ZM448.298 201L448.107 201.447L448.19 200.981L448.535 200.964L448.897 200.948L449.272 200.933L449.66 200.919L450.061 200.905L450.472 200.892L450.892 200.88L451.321 200.868L451.756 200.856L452.196 200.845L452.64 200.834L453.087 200.823L453.535 200.813L453.983 200.802L454.43 200.791L454.874 200.78L455.314 200.769L455.748 200.758L456.175 200.746L456.595 200.734L457.004 200.721L457.404 200.708L457.79 200.694L458.163 200.679L458.521 200.664L458.863 200.647L459.187 200.63L459.492 200.611L459.777 200.591L460.04 200.57L460.278 200.549L460.492 200.525L460.549 201.009L460.326 201.032L460.08 201.056L459.812 201.077L459.523 201.096L459.214 201.115L458.888 201.132L458.543 201.149L458.182 201.165L457.807 201.179L457.419 201.193L457.019 201.207L456.608 201.219L456.188 201.231L455.76 201.243L455.325 201.255L454.885 201.266L454.441 201.276L453.995 201.287L453.547 201.298L453.098 201.309L452.652 201.319L452.208 201.33L451.768 201.341L451.333 201.353L450.906 201.365L450.486 201.377L450.076 201.39L449.677 201.404L449.289 201.418L448.916 201.433L448.558 201.449L448.215 201.466L448.298 201V201ZM448.19 200.981L448.215 201.466L448.202 201.467L448.19 201.466L448.178 201.465L448.166 201.464L448.154 201.462L448.142 201.459L448.13 201.456L448.119 201.452L448.108 201.448L448.097 201.443L448.087 201.438L448.077 201.432L448.067 201.425L448.057 201.419L448.048 201.412L448.039 201.404L448.03 201.396L448.022 201.388L448.015 201.379L448.007 201.37L448 201.36L447.994 201.35L447.988 201.34L447.983 201.33L447.978 201.319L447.973 201.308L447.969 201.296L447.966 201.285L447.963 201.273L447.961 201.261L447.96 201.248L447.959 201.236L447.958 201.224L447.959 201.211L447.96 201.199L447.961 201.187L447.963 201.175L447.966 201.163L447.969 201.152L447.973 201.141L447.977 201.13L447.982 201.119L447.988 201.108L447.993 201.098L448 201.088L448.006 201.079L448.014 201.07L448.021 201.061L448.029 201.052L448.038 201.044L448.047 201.037L448.056 201.029L448.065 201.023L448.075 201.016L448.086 201.01L448.096 201.005L448.107 201L448.118 200.996L448.13 200.992L448.141 200.988L448.153 200.986L448.165 200.984L448.178 200.982L448.19 200.981V200.981ZM413.774 208.897L413.883 208.423L415.019 208.655L416.346 208.869L417.843 209.066L419.489 209.244L421.267 209.399L423.156 209.533L425.136 209.643L427.189 209.728L429.295 209.786L431.434 209.817L433.589 209.82L435.738 209.792L437.863 209.732L439.944 209.641L441.962 209.515L443.898 209.355L445.733 209.158L447.445 208.925L449.017 208.653L450.427 208.342L451.655 207.991L452.68 207.603L453.478 207.179L454.028 206.732L454.321 206.279L454.377 205.812L454.182 205.273L453.684 204.643L452.845 203.936L451.647 203.166L450.073 202.336L448.107 201.447L448.298 201L450.288 201.898L451.892 202.745L453.132 203.544L454.03 204.3L454.605 205.03L454.861 205.751L454.78 206.446L454.388 207.06L453.745 207.587L452.879 208.046L451.808 208.454L450.545 208.814L449.11 209.13L447.519 209.405L445.79 209.641L443.944 209.839L441.997 210L439.969 210.126L437.88 210.218L435.747 210.277L433.591 210.305L431.432 210.303L429.285 210.272L427.173 210.213L425.113 210.128L423.126 210.018L421.229 209.884L419.443 209.727L417.785 209.549L416.275 209.351L414.933 209.133L413.774 208.897H413.774ZM426.623 199.3L426.891 198.892L426.749 199.339L425.35 199.314L423.982 199.331L422.65 199.39L421.357 199.486L420.105 199.619L418.899 199.784L417.742 199.982L416.637 200.209L415.587 200.463L414.595 200.742L413.666 201.044L412.802 201.365L412.006 201.705L411.284 202.06L410.637 202.426L410.07 202.804L409.585 203.187L409.188 203.573L408.878 203.957L408.659 204.335L408.53 204.702L408.488 205.061L408.534 205.413L408.67 205.765L408.906 206.123L409.252 206.481L409.713 206.838L410.295 207.186L411 207.522L411.831 207.842L412.792 208.143L413.883 208.423L413.774 208.897L412.658 208.611L411.671 208.301L410.807 207.969L410.065 207.614L409.439 207.239L408.926 206.845L408.525 206.427L408.235 205.99L408.059 205.532L408 205.063L408.054 204.594L408.215 204.131L408.476 203.682L408.826 203.245L409.264 202.822L409.783 202.41L410.381 202.013L411.056 201.63L411.803 201.263L412.62 200.914L413.505 200.585L414.453 200.278L415.462 199.993L416.53 199.735L417.652 199.504L418.825 199.304L420.046 199.135L421.313 199.002L422.621 198.904L423.968 198.846L425.35 198.828L426.765 198.853L426.623 199.3L426.623 199.3ZM426.749 199.339L426.765 198.853L426.777 198.854L426.789 198.855L426.802 198.857L426.814 198.86L426.825 198.863L426.837 198.867L426.848 198.871L426.859 198.875L426.87 198.881L426.88 198.886L426.89 198.892L426.9 198.899L426.909 198.906L426.918 198.914L426.927 198.922L426.935 198.93L426.943 198.938L426.95 198.948L426.957 198.957L426.964 198.967L426.97 198.977L426.975 198.987L426.98 198.998L426.985 199.009L426.989 199.02L426.992 199.031L426.995 199.043L426.997 199.055L426.999 199.067L427 199.079L427.001 199.091L427.001 199.104L427 199.116L426.999 199.128L426.997 199.14L426.994 199.152L426.991 199.164L426.988 199.175L426.983 199.187L426.979 199.197L426.974 199.208L426.968 199.218L426.962 199.228L426.955 199.238L426.948 199.247L426.94 199.256L426.932 199.265L426.924 199.273L426.915 199.281L426.906 199.288L426.897 199.295L426.887 199.301L426.877 199.307L426.866 199.313L426.856 199.318L426.845 199.323L426.834 199.327L426.822 199.33L426.81 199.333L426.799 199.335L426.787 199.337L426.774 199.338L426.762 199.339L426.749 199.339V199.339ZM444.237 190.663L444.205 191.148L443.627 191.116L442.951 191.092L442.189 191.077L441.35 191.071L440.444 191.077L439.482 191.095L438.473 191.126L437.427 191.172L436.355 191.232L435.266 191.309L434.169 191.403L433.075 191.517L431.995 191.649L430.937 191.801L429.912 191.976L428.93 192.173L428.001 192.393L427.136 192.637L426.344 192.906L425.637 193.2L425.025 193.517L424.52 193.857L424.13 194.216L423.861 194.589L423.715 194.977L423.689 195.392L423.794 195.85L424.05 196.361L424.477 196.924L425.085 197.535L425.887 198.191L426.891 198.892L426.623 199.3L425.592 198.58L424.758 197.895L424.109 197.244L423.637 196.62L423.335 196.018L423.201 195.434L423.236 194.876L423.431 194.359L423.764 193.893L424.218 193.475L424.777 193.098L425.431 192.758L426.172 192.451L426.991 192.173L427.879 191.922L428.826 191.697L429.824 191.498L430.862 191.322L431.93 191.167L433.022 191.033L434.123 190.92L435.228 190.824L436.324 190.747L437.404 190.686L438.456 190.641L439.47 190.61L440.438 190.592L441.35 190.586L442.194 190.591L442.964 190.607L443.648 190.631L444.237 190.663L444.237 190.663Z" fill="#1F1A17"/>
<path fill-rule="evenodd" clip-rule="evenodd" d="M433.441 193.833C432.373 200.451 455.715 199.524 460.589 194.336C469.125 196.059 467.654 199.825 444.602 200.067C427.545 200.246 420.53 192.655 433.441 193.833L433.441 193.833Z" fill="#E5E5E5"/>
<path fill-rule="evenodd" clip-rule="evenodd" d="M445.642 189.252C451.432 189.087 456.168 190.933 456.219 193.374C456.27 195.816 451.616 196.911 445.827 197.076C440.038 197.242 435.301 196.414 435.25 193.973C435.199 191.532 439.853 189.418 445.642 189.252H445.642Z" fill="#FFCC00"/>
<path d="M456.442 193.37L455.996 193.379L455.98 193.183L455.941 192.989L455.878 192.797L455.792 192.607L455.683 192.417L455.55 192.229L455.393 192.043L455.213 191.859L455.011 191.68L454.786 191.504L454.539 191.333L454.271 191.167L453.984 191.007L453.677 190.853L453.352 190.705L453.009 190.565L452.648 190.431L452.271 190.305L451.878 190.186L451.47 190.077L451.048 189.976L450.612 189.883L450.162 189.799L449.701 189.724L449.228 189.659L448.745 189.604L448.25 189.56L447.746 189.525L447.234 189.5L446.713 189.487L446.184 189.485L445.648 189.495L445.637 189.01L446.18 189L446.717 189.002L447.246 189.015L447.768 189.039L448.28 189.074L448.783 189.12L449.277 189.177L449.759 189.242L450.231 189.318L450.689 189.404L451.136 189.499L451.57 189.604L451.989 189.717L452.394 189.839L452.783 189.969L453.157 190.106L453.514 190.254L453.855 190.408L454.178 190.57L454.482 190.74L454.768 190.917L455.034 191.102L455.28 191.294L455.505 191.494L455.71 191.702L455.891 191.917L456.049 192.141L456.183 192.372L456.29 192.612L456.371 192.858L456.422 193.111L456.442 193.37L456.442 193.37ZM445.833 197.319L445.821 196.834L446.358 196.816L446.887 196.792L447.41 196.763L447.922 196.728L448.426 196.687L448.92 196.64L449.402 196.589L449.874 196.53L450.333 196.466L450.779 196.396L451.212 196.32L451.63 196.238L452.034 196.149L452.422 196.054L452.795 195.953L453.15 195.846L453.488 195.732L453.806 195.612L454.106 195.486L454.386 195.354L454.645 195.216L454.883 195.072L455.099 194.923L455.292 194.769L455.462 194.61L455.608 194.447L455.73 194.28L455.829 194.11L455.905 193.936L455.958 193.757L455.988 193.572L455.996 193.379L456.442 193.37L456.433 193.626L456.391 193.876L456.32 194.116L456.221 194.345L456.094 194.563L455.943 194.77L455.767 194.965L455.57 195.15L455.351 195.325L455.112 195.49L454.852 195.647L454.574 195.796L454.277 195.937L453.961 196.069L453.627 196.194L453.277 196.312L452.91 196.423L452.527 196.527L452.128 196.624L451.715 196.714L451.288 196.799L450.847 196.877L450.393 196.948L449.927 197.013L449.45 197.072L448.961 197.125L448.462 197.172L447.953 197.213L447.435 197.248L446.91 197.277L446.375 197.301L445.833 197.319L445.833 197.319ZM435.027 193.978L435.473 193.969L435.489 194.16L435.528 194.343L435.588 194.518L435.672 194.687L435.778 194.851L435.908 195.01L436.062 195.165L436.239 195.314L436.44 195.456L436.663 195.593L436.908 195.723L437.174 195.846L437.461 195.962L437.768 196.071L438.093 196.172L438.437 196.266L438.798 196.352L439.176 196.432L439.57 196.505L439.979 196.57L440.402 196.629L440.84 196.68L441.29 196.725L441.752 196.762L442.228 196.793L442.713 196.818L443.209 196.836L443.714 196.848L444.229 196.854L444.752 196.853L445.283 196.846L445.821 196.834L445.833 197.319L445.292 197.332L444.757 197.338L444.23 197.339L443.711 197.333L443.2 197.322L442.698 197.303L442.206 197.279L441.726 197.247L441.256 197.208L440.798 197.164L440.353 197.111L439.921 197.052L439.503 196.985L439.099 196.911L438.71 196.829L438.337 196.739L437.979 196.641L437.639 196.535L437.317 196.42L437.011 196.297L436.725 196.165L436.457 196.023L436.209 195.872L435.982 195.709L435.775 195.535L435.591 195.351L435.429 195.152L435.292 194.941L435.182 194.717L435.1 194.481L435.048 194.234L435.027 193.978L435.027 193.978ZM445.637 189.01L445.648 189.495L445.113 189.516L444.587 189.548L444.067 189.591L443.556 189.644L443.054 189.708L442.562 189.781L442.081 189.863L441.612 189.955L441.153 190.056L440.709 190.165L440.277 190.283L439.859 190.408L439.456 190.541L439.069 190.682L438.697 190.83L438.342 190.984L438.005 191.144L437.687 191.31L437.386 191.481L437.106 191.658L436.846 191.839L436.607 192.024L436.388 192.213L436.194 192.404L436.021 192.598L435.872 192.793L435.746 192.989L435.645 193.185L435.567 193.381L435.513 193.576L435.482 193.772L435.473 193.969L435.027 193.978L435.037 193.718L435.077 193.463L435.147 193.212L435.245 192.967L435.368 192.729L435.516 192.497L435.688 192.272L435.883 192.054L436.1 191.841L436.337 191.635L436.595 191.436L436.873 191.242L437.17 191.056L437.485 190.875L437.819 190.701L438.17 190.535L438.537 190.375L438.921 190.223L439.32 190.079L439.734 189.942L440.162 189.812L440.604 189.692L441.06 189.581L441.526 189.478L442.006 189.384L442.496 189.3L442.997 189.225L443.507 189.161L444.027 189.106L444.556 189.063L445.093 189.031L445.637 189.01V189.01Z" fill="#1F1A17"/>
<path fill-rule="evenodd" clip-rule="evenodd" d="M431.146 197.135C436.795 196.939 441.431 198.921 441.497 201.56C441.564 204.199 437.037 205.013 431.387 205.208C425.738 205.403 421.103 204.906 421.036 202.267C420.97 199.628 425.497 197.33 431.146 197.135Z" fill="#FFCC00"/>
<path d="M441.699 201.556L441.295 201.564L441.278 201.35L441.238 201.139L441.175 200.93L441.09 200.722L440.98 200.515L440.848 200.311L440.693 200.109L440.515 199.91L440.315 199.716L440.094 199.526L439.851 199.342L439.588 199.163L439.306 198.99L439.005 198.824L438.686 198.665L438.35 198.513L437.996 198.37L437.627 198.235L437.242 198.108L436.843 197.99L436.43 197.881L436.003 197.783L435.564 197.693L435.113 197.614L434.651 197.544L434.177 197.486L433.694 197.44L433.202 197.403L432.702 197.379L432.193 197.366L431.677 197.365L431.154 197.377L431.138 196.892L431.668 196.88L432.192 196.88L432.709 196.893L433.218 196.918L433.718 196.954L434.209 197.002L434.691 197.062L435.162 197.131L435.622 197.212L436.07 197.304L436.506 197.406L436.929 197.516L437.339 197.638L437.735 197.768L438.116 197.907L438.481 198.056L438.83 198.213L439.163 198.379L439.479 198.553L439.777 198.735L440.056 198.925L440.316 199.124L440.557 199.331L440.778 199.546L440.977 199.768L441.155 199.999L441.31 200.239L441.441 200.487L441.547 200.744L441.626 201.008L441.677 201.28L441.699 201.556V201.556ZM431.395 205.45L431.38 204.965L431.905 204.945L432.422 204.921L432.932 204.893L433.433 204.861L433.925 204.824L434.407 204.783L434.878 204.736L435.338 204.684L435.786 204.628L436.221 204.566L436.644 204.498L437.052 204.424L437.446 204.344L437.825 204.257L438.188 204.164L438.535 204.064L438.863 203.958L439.174 203.846L439.466 203.726L439.739 203.598L439.99 203.463L440.222 203.323L440.431 203.175L440.619 203.02L440.782 202.861L440.924 202.694L441.042 202.523L441.137 202.346L441.21 202.164L441.261 201.974L441.289 201.776L441.295 201.564L441.699 201.556L441.691 201.829L441.653 202.094L441.586 202.347L441.491 202.587L441.369 202.813L441.223 203.026L441.053 203.225L440.862 203.412L440.65 203.586L440.418 203.749L440.167 203.904L439.896 204.048L439.608 204.182L439.301 204.308L438.978 204.426L438.637 204.536L438.281 204.638L437.909 204.734L437.522 204.822L437.12 204.904L436.704 204.979L436.276 205.048L435.835 205.111L435.382 205.169L434.917 205.221L434.441 205.267L433.955 205.309L433.46 205.346L432.956 205.378L432.443 205.406L431.922 205.43L431.395 205.45H431.395ZM420.834 202.271L421.238 202.263L421.255 202.471L421.295 202.666L421.355 202.851L421.437 203.028L421.543 203.197L421.671 203.36L421.822 203.515L421.996 203.663L422.193 203.804L422.412 203.937L422.653 204.062L422.915 204.179L423.197 204.286L423.497 204.387L423.817 204.478L424.154 204.561L424.508 204.637L424.878 204.705L425.264 204.764L425.665 204.817L426.08 204.863L426.508 204.901L426.948 204.933L427.402 204.959L427.866 204.979L428.341 204.992L428.826 205L429.321 205.003L429.824 205.001L430.335 204.993L430.855 204.981L431.38 204.965L431.395 205.45L430.867 205.467L430.346 205.479L429.832 205.486L429.326 205.488L428.828 205.486L428.339 205.478L427.859 205.464L427.39 205.444L426.932 205.419L426.485 205.387L426.051 205.347L425.63 205.301L425.221 205.247L424.827 205.185L424.447 205.116L424.082 205.039L423.734 204.952L423.401 204.857L423.085 204.753L422.787 204.638L422.507 204.514L422.245 204.378L422.002 204.23L421.778 204.071L421.575 203.897L421.393 203.71L421.234 203.508L421.099 203.29L420.99 203.056L420.908 202.807L420.856 202.545L420.834 202.271L420.834 202.271ZM431.138 196.892L431.154 197.377L430.632 197.401L430.117 197.438L429.609 197.486L429.111 197.544L428.621 197.615L428.141 197.695L427.672 197.785L427.214 197.887L426.768 197.997L426.333 198.116L425.913 198.245L425.506 198.381L425.113 198.526L424.736 198.68L424.374 198.841L424.028 199.008L423.7 199.183L423.389 199.364L423.096 199.55L422.823 199.742L422.57 199.939L422.337 200.14L422.125 200.345L421.935 200.554L421.767 200.765L421.623 200.977L421.501 201.19L421.402 201.404L421.326 201.619L421.274 201.833L421.244 202.047L421.238 202.263L420.834 202.271L420.842 201.994L420.88 201.72L420.945 201.451L421.037 201.189L421.156 200.932L421.298 200.683L421.464 200.44L421.651 200.204L421.86 199.975L422.09 199.753L422.339 199.536L422.609 199.327L422.897 199.125L423.203 198.929L423.527 198.741L423.867 198.56L424.224 198.387L424.597 198.222L424.986 198.064L425.388 197.915L425.805 197.775L426.236 197.644L426.678 197.521L427.134 197.409L427.6 197.307L428.078 197.214L428.566 197.132L429.063 197.062L429.57 197.001L430.085 196.953L430.608 196.917L431.138 196.892L431.138 196.892Z" fill="#1F1A17"/>
<path fill-rule="evenodd" clip-rule="evenodd" d="M418.189 202.521C419.631 207.981 440.27 207.439 445.337 203.023C453.873 204.747 451.999 207.512 430.508 208.369C412.678 209.079 404.505 202.502 418.189 202.521L418.189 202.521Z" fill="#E5E5E5"/>
</g>
<defs>
<clipPath id="clip0_1_2">
<rect width="60" height="21.3048" fill="white" transform="translate(408 189)"/>
</clipPath>
</defs>
</svg>
